<?xml version="1.0" standalone="no"?>
<!DOCTYPE svg PUBLIC "-//W3C//DTD SVG 20010904//EN"
 "http://www.w3.org/TR/2001/REC-SVG-20010904/DTD/svg10.dtd">
<svg version="1.0" xmlns="http://www.w3.org/2000/svg"
 width="1024.000000pt" height="1536.000000pt" viewBox="0 0 1024.000000 1536.000000"
 preserveAspectRatio="xMidYMid meet">
<metadata>
Created by potrace 1.16, written by Peter Selinger 2001-2019
</metadata>
<g transform="translate(0.000000,1536.000000) scale(0.100000,-0.100000)"
fill="#000000" stroke="none">
<path d="M6285 14341 l-20 -9 -74 -150 -74 -151 13 -16 c7 -9 22 -21 32 -26
l19 -10 58 35 c32 20 61 36 64 36 4 0 28 -13 54 -30 54 -35 82 -37 114 -11
l23 19 -69 147 c-60 126 -93 177 -115 174 -3 0 -14 -4 -25 -8z"/>
<path d="M3743 14318 c-11 -13 -96 -207 -107 -243 -3 -11 -19 -28 -36 -37
l-30 -17 0 -24 c0 -13 9 -50 20 -82 l20 -58 -12 -34 -12 -34 14 -9 15 -10 225
0 c124 0 231 4 238 9 l14 8 -7 44 -6 44 15 44 c9 24 16 57 16 73 l0 29 -32 13
-31 14 -58 138 -57 139 -89 3 -90 3 -10 -13z m184 -157 c23 -55 39 -102 35
-105 -6 -6 -262 -8 -262 -2 0 2 17 41 38 87 21 46 42 92 45 102 l6 17 49 0 48
0 41 -99z m108 -183 c3 -3 -5 -32 -19 -64 l-24 -59 -154 0 -153 0 -19 59 -18
58 13 10 14 9 177 -3 c97 -2 179 -6 183 -10z"/>
<path d="M6511 13988 l-81 -43 -64 33 -64 33 -62 -32 -61 -33 -75 37 c-41 20
-83 37 -93 37 l-19 0 30 -77 30 -78 -6 -43 -6 -42 268 2 267 3 -3 46 -3 45 20
52 c22 55 27 102 12 102 -5 0 -45 -19 -90 -42z"/>
<path d="M3435 13701 c-33 -3 -70 -12 -82 -19 l-22 -12 -6 -33 c-4 -18 -5
-107 -3 -197 l4 -165 136 -250 c75 -137 146 -265 158 -283 l20 -32 216 2 216
3 154 290 153 290 -2 184 -2 184 -28 20 -27 21 -413 2 c-226 1 -439 -1 -472
-5z m870 -236 l0 -160 -86 -155 c-47 -85 -111 -203 -143 -262 l-57 -108 -169
0 -168 0 -142 260 -141 260 -3 160 c-1 88 0 162 2 165 3 3 208 4 456 3 l451
-3 0 -160z"/>
<path d="M3607 13574 c-4 -4 -7 -105 -7 -225 l0 -218 40 -63 40 -63 -3 285 -2
285 -30 3 c-17 2 -34 0 -38 -4z"/>
<path d="M3765 13568 c-3 -7 -4 -177 -3 -378 l3 -365 35 0 35 0 0 375 0 375
-33 3 -32 3 -5 -13z"/>
<path d="M4003 13573 l-83 -4 0 -114 0 -115 165 0 165 0 0 115 0 115 -47 0
c-27 0 -64 2 -83 3 -19 2 -72 2 -117 0z m207 -124 l0 -59 -125 0 -125 0 0 60
0 59 118 3 c64 2 120 2 125 0 4 -2 7 -30 7 -63z"/>
<path d="M5911 13694 c-51 -7 -104 -20 -117 -29 l-23 -15 -6 -33 c-4 -19 -5
-96 -3 -173 l4 -139 115 -205 c64 -113 137 -245 163 -293 l48 -88 21 -9 c12
-4 105 -8 206 -9 l184 0 19 10 c10 5 37 47 59 92 23 45 93 177 155 294 l114
212 0 169 0 169 -19 17 -18 17 -109 14 -109 15 -295 -1 -295 -1 -94 -14z m197
-371 l2 -273 -9 0 c-5 0 -25 22 -45 49 l-36 49 0 226 0 227 43 -3 42 -3 3
-272z m167 -123 l0 -395 -40 0 -40 0 -3 398 -2 398 42 -3 43 -3 0 -395z m423
388 l12 -12 0 -108 0 -107 -19 -11 -20 -10 -138 0 c-76 0 -148 3 -160 6 l-23
6 0 117 c0 65 3 121 7 124 3 4 79 7 168 7 l161 0 12 -12z"/>
<path d="M6412 13468 l3 -63 40 -3 c22 -1 73 0 113 4 l72 6 0 59 0 59 -115 0
-116 0 3 -62z"/>
<path d="M6170 12133 c-8 -3 -39 -28 -67 -56 l-53 -51 0 -132 0 -133 38 -31
37 -31 -35 -31 c-19 -16 -48 -40 -65 -53 l-30 -23 -88 -5 -88 -5 -25 -23 -25
-24 3 -165 3 -165 166 -336 166 -336 24 -6 c30 -8 356 -9 385 -1 l22 6 163
336 164 337 3 159 3 160 -12 22 c-16 30 -58 44 -136 44 l-64 0 -42 29 c-23 16
-55 41 -70 57 l-29 28 34 27 33 28 3 129 4 130 -43 47 c-24 26 -55 53 -70 61
l-28 14 -133 -1 c-73 0 -140 -3 -148 -6z m362 -490 c21 -20 38 -41 38 -45 0
-4 -116 -8 -257 -8 l-257 0 44 45 44 45 175 0 175 0 38 -37z m-303 -197 l11
-13 -2 -394 -3 -394 -42 -3 -43 -3 0 404 c0 222 3 407 7 410 11 12 60 7 72 -7z
m149 2 l12 -12 0 -387 0 -387 -14 -11 c-8 -7 -27 -11 -43 -9 l-28 3 -3 395
c-1 217 0 401 3 407 6 16 57 17 73 1z m146 6 l16 -6 0 -265 0 -266 -37 -41
c-20 -22 -40 -42 -45 -44 -10 -4 -11 612 -1 621 8 9 46 9 67 1z"/>
<path d="M3679 12110 c-50 -26 -96 -82 -110 -132 l-11 -43 5 -51 c6 -63 26
-102 72 -147 45 -44 92 -57 200 -57 143 0 207 32 254 124 l23 47 -4 74 -3 74
-30 42 -30 42 -44 24 -44 23 -121 0 -121 -1 -36 -19z m311 -85 l30 -29 11 -39
10 -39 -6 -40 -7 -40 -30 -33 c-38 -44 -74 -54 -180 -52 l-87 3 -28 20 c-15
12 -37 36 -47 54 l-19 32 -1 42 c-1 57 21 103 63 132 l36 25 112 -3 112 -3 31
-30z"/>
<path d="M3605 11663 l-50 -4 -34 -26 -34 -27 -75 -6 -74 -6 -25 -29 -25 -29
4 -170 5 -171 166 -331 166 -331 16 -7 c24 -9 388 -7 402 2 7 4 87 160 178
346 l165 338 0 164 0 163 -24 28 -24 28 -78 3 -79 4 -40 31 -39 32 -226 1
c-124 1 -247 0 -275 -3z m633 -143 l72 0 -1 -157 -1 -158 -151 -305 -152 -305
-163 -3 -162 -2 -155 312 -155 313 0 151 c0 83 2 153 5 156 3 3 182 4 398 2
216 -2 425 -3 465 -4z"/>
<path d="M3851 11440 l-11 -6 2 -390 3 -389 29 -3 c16 -2 33 1 38 6 l9 9 1
381 c1 210 -1 385 -4 388 -9 9 -55 12 -67 4z"/>
<path d="M3992 11442 l-12 -8 2 -330 3 -329 43 67 42 68 0 264 0 264 -16 6
c-21 8 -46 7 -62 -2z"/>
<path d="M3698 11054 l-3 -386 12 -10 c6 -5 24 -8 40 -6 l28 3 3 393 2 392
-40 0 -40 0 -2 -386z"/>
<path d="M6169 9907 c-38 -21 -78 -58 -100 -93 l-19 -31 0 -107 c0 -59 5 -116
10 -126 6 -11 30 -33 54 -50 l45 -30 196 0 196 0 -3 -22 -3 -23 -373 0 -374 0
-25 -29 -25 -29 4 -176 4 -176 113 -210 c62 -115 135 -254 162 -308 27 -53 58
-106 69 -117 l20 -20 238 0 c130 0 242 4 249 8 6 4 79 140 161 302 83 162 157
309 166 325 l16 30 0 173 0 172 -20 20 c-25 25 -41 28 -188 33 l-124 4 -21 22
-22 21 53 46 52 46 0 108 0 109 -11 23 c-7 13 -34 43 -62 68 l-49 45 -182 3
-181 3 -26 -14z m84 -624 c-7 -2 -21 -2 -30 0 l-18 5 30 0 c17 0 24 -2 18 -5z
m175 -1 l12 -8 -2 -380 -3 -379 -40 0 -40 0 -3 374 -2 374 11 13 c13 15 47 18
67 6z m-150 -509 l-3 -258 -40 0 -40 0 -3 225 c-2 124 0 240 3 258 l6 32 40 0
39 0 -2 -257z"/>
<path d="M3696 9896 c-44 -17 -100 -67 -123 -111 l-16 -30 -1 -70 -1 -71 28
-47 28 -47 41 -28 41 -27 135 -3 135 -4 43 17 c48 18 88 60 115 120 l19 40 0
51 0 50 -27 55 -28 54 -49 30 -49 30 -126 2 -126 3 -39 -14z m300 -82 c44 -32
66 -68 71 -115 l4 -44 -23 -45 -23 -45 -35 -17 -35 -18 -115 0 -115 0 -31 19
c-78 47 -87 190 -16 254 32 29 70 36 184 34 l107 -2 27 -21z"/>
<path d="M3530 9424 c-19 -7 -70 -13 -113 -13 l-78 -1 -25 -25 -25 -25 3 -183
3 -182 161 -310 162 -310 229 -3 230 -2 10 12 c6 7 80 150 164 318 l154 305 3
175 3 176 -21 27 -21 27 -85 0 -85 0 -36 15 -35 15 -282 -1 -281 -1 -35 -14z
m810 -234 l0 -150 -150 -300 -150 -300 -188 0 -187 0 -149 288 -149 287 -5
163 -4 162 491 0 491 0 0 -150z"/>
<path d="M3832 9263 l-9 -18 -2 -355 -1 -355 9 -13 8 -13 34 3 34 3 0 380 0
380 -32 3 -32 3 -9 -18z"/>
<path d="M3677 9010 c-4 -14 -7 -127 -7 -252 l0 -227 21 -11 c11 -7 32 -9 45
-6 l24 6 -1 238 c0 130 -4 246 -9 257 l-9 20 0 -17 c-1 -10 -8 -18 -16 -18 -8
0 -15 8 -16 18 l0 17 -8 -20 -8 -20 -5 20 -4 20 -7 -25z"/>
<path d="M6222 7803 l-20 -18 -66 -185 -66 -185 21 -28 c11 -16 18 -34 16 -41
l-5 -13 -54 -6 c-29 -4 -90 -7 -136 -7 l-83 0 -24 -25 -25 -24 0 -192 0 -191
82 -152 c45 -83 112 -209 150 -281 38 -71 78 -138 89 -147 l21 -18 217 0 216
1 16 12 c8 7 41 64 74 127 32 63 99 192 149 285 l91 170 3 188 3 187 -30 30
-29 30 -89 1 c-48 1 -95 3 -103 4 -8 1 -28 3 -43 4 l-28 1 -5 15 -6 16 27 24
26 25 -7 33 c-3 17 -33 104 -65 192 l-58 160 -18 12 -17 13 -102 0 -102 0 -20
-17z m267 -419 c35 -7 40 -23 14 -46 l-18 -15 -125 2 c-69 1 -139 3 -157 3
l-32 2 -11 20 c-6 11 -8 25 -5 30 l6 10 148 0 c82 0 163 -3 180 -6z m-72 -204
l5 -20 34 0 34 0 0 -235 0 -235 -35 0 -34 0 -3 -112 -3 -113 -42 -3 -43 -3 0
115 0 116 -35 0 -35 0 0 235 0 235 34 0 34 0 5 20 5 20 37 0 37 0 5 -20z"/>
<path d="M6340 6925 l0 -235 35 0 35 0 0 235 0 235 -35 0 -35 0 0 -235z"/>
<path d="M3744 7803 c-6 -5 -16 -17 -21 -28 -22 -41 -133 -367 -133 -389 0
-12 9 -31 21 -42 l21 -19 -28 -6 c-16 -4 -77 -7 -136 -8 l-107 -1 -28 -24 -28
-24 0 -184 0 -183 66 -125 c37 -69 104 -197 149 -285 46 -88 90 -168 98 -177
l15 -18 217 0 218 0 10 13 c5 6 75 141 156 298 l146 287 0 186 0 187 -25 24
-24 25 -104 0 c-58 0 -119 3 -136 6 l-32 7 17 18 c9 11 17 31 16 46 -1 30 -99
321 -129 382 l-18 36 -95 3 c-52 1 -100 -1 -106 -5z m217 -238 c33 -93 59
-171 59 -172 0 -2 -79 -3 -175 -3 l-175 0 0 14 c0 8 25 87 56 176 l57 161 59
-3 60 -3 59 -170z m347 -485 l3 -155 -137 -276 -137 -276 -176 -5 c-97 -3
-181 -3 -188 -1 -7 3 -75 128 -153 279 l-140 273 0 161 0 160 463 -2 462 -3 3
-155z"/>
<path d="M3848 7163 c-16 -2 -28 -9 -28 -14 0 -5 -18 -9 -40 -9 l-40 0 0 -225
0 -225 40 0 40 0 0 225 0 225 35 0 35 0 0 -225 0 -225 40 0 40 0 0 225 0 225
-29 0 c-16 0 -34 7 -41 15 -7 8 -15 14 -19 14 -3 -1 -18 -4 -33 -6z"/>
<path d="M3822 6548 l3 -93 28 -3 c16 -2 35 2 43 9 l14 11 0 84 0 84 -45 0
-46 0 3 -92z"/>
<path d="M6333 5772 l-91 -3 -10 -12 c-9 -12 -114 -298 -134 -365 l-9 -33 15
-24 c9 -14 16 -31 16 -40 l0 -15 -135 0 -136 0 -28 -15 c-16 -8 -31 -22 -35
-30 -3 -9 -6 -95 -6 -191 l0 -175 154 -297 c85 -163 160 -303 166 -309 l11
-13 234 0 235 0 13 23 c8 12 80 150 161 306 l146 283 0 180 0 179 -10 19 c-5
10 -24 23 -41 29 l-32 11 -127 0 c-70 0 -130 3 -133 6 -4 4 5 20 18 36 14 16
25 37 25 46 0 9 -30 101 -66 204 l-67 186 -21 9 c-11 4 -62 7 -113 5z m180
-438 c4 -4 -2 -19 -13 -34 l-20 -28 -147 5 -147 4 -12 17 c-8 9 -14 23 -14 30
l0 12 173 0 c96 0 177 -3 180 -6z m-228 -554 l0 -375 -18 -3 c-10 -2 -29 -1
-43 2 l-24 6 0 369 c0 202 3 371 7 375 4 4 23 6 43 4 l35 -3 0 -375z"/>
<path d="M3733 5758 c-9 -12 -42 -98 -71 -183 -6 -16 -24 -68 -41 -114 -35
-94 -37 -119 -16 -147 8 -10 15 -22 15 -26 0 -5 -56 -8 -125 -8 l-126 0 -29
-15 -30 -15 -6 -23 c-3 -13 -4 -104 -2 -203 l3 -179 148 -280 c82 -154 156
-288 164 -297 l16 -18 211 0 c116 0 216 4 222 8 6 4 79 141 162 304 l152 298
0 180 0 181 -10 19 c-5 10 -24 23 -41 29 l-32 11 -118 0 c-66 0 -119 2 -119 5
0 3 7 17 16 30 l16 25 -6 24 c-17 69 -131 379 -143 392 l-14 14 -93 0 -94 0
-9 -12z m221 -226 c31 -92 56 -170 56 -175 0 -4 -76 -7 -170 -7 l-170 0 0 18
c0 15 29 105 105 320 l4 12 60 0 59 0 56 -168z m342 -329 l11 -8 -5 -166 -5
-166 -136 -269 -137 -269 -179 -3 -180 -2 -148 284 -147 284 0 155 0 155 13 5
c21 8 902 8 913 0z"/>
<path d="M3707 5134 c-4 -4 -7 -171 -7 -371 l0 -363 40 0 40 0 -2 368 -3 367
-30 3 c-17 2 -34 0 -38 -4z"/>
<path d="M6246 3627 c-10 -7 -31 -49 -46 -93 -16 -43 -49 -132 -74 -198 l-45
-118 10 -19 c5 -11 14 -19 19 -19 6 0 10 -9 10 -20 l0 -20 -22 -10 c-13 -5
-59 -14 -103 -19 l-80 -11 -21 -24 -22 -24 -6 -119 c-4 -65 -7 -143 -8 -173
l-1 -55 131 -274 c73 -151 138 -278 144 -283 17 -10 429 -10 445 0 7 4 71 131
143 282 l132 275 1 30 c0 17 -3 95 -8 174 l-8 143 -21 25 -21 24 -97 14 c-146
20 -162 30 -118 70 11 10 20 29 20 43 0 14 -27 101 -60 194 -33 92 -60 172
-60 177 0 6 -10 17 -22 25 l-22 16 -86 0 -86 0 -18 -13z m284 -446 c0 -4 -9
-20 -21 -35 l-20 -26 -145 0 -145 0 -25 25 c-14 14 -22 30 -19 35 l6 10 185 0
184 0 0 -9z m-180 -536 l0 -335 -40 0 -40 0 0 335 0 335 40 0 40 0 0 -335z
m150 150 l0 -185 -40 0 -40 0 0 170 0 170 -20 0 c-20 0 -26 11 -13 23 3 4 30
7 60 7 l53 0 0 -185z"/>
<path d="M3732 3613 l-19 -18 -68 -196 -67 -197 16 -31 c9 -17 22 -31 29 -32
6 0 3 -4 -8 -9 -11 -5 -51 -9 -88 -9 l-68 -1 -34 -14 c-18 -8 -38 -23 -43 -33
-13 -25 -36 -325 -27 -355 11 -34 255 -551 267 -566 l11 -12 215 2 215 3 89
190 c49 105 109 236 134 293 l45 102 -16 168 -16 167 -24 25 -25 24 -72 4
c-40 1 -83 5 -96 8 l-23 5 16 22 c8 12 15 31 15 43 0 12 -31 111 -69 220 l-68
198 -19 7 c-10 4 -56 8 -100 8 l-82 1 -20 -17z m166 -70 c23 -45 115 -333 109
-339 -9 -9 -334 -10 -343 -2 -6 6 88 300 108 341 l9 17 54 0 54 0 9 -17z m322
-503 l14 -9 11 -143 11 -143 -37 -85 c-58 -134 -143 -319 -178 -387 l-31 -63
-169 0 -168 0 -88 183 c-48 100 -105 220 -125 267 l-38 85 9 140 c5 77 11 146
14 153 l4 12 378 0 378 0 15 -10z"/>
<path d="M3920 2786 l0 -176 40 0 40 0 0 170 0 170 -17 0 c-10 0 -28 3 -40 6
l-23 6 0 -176z"/>
<path d="M3760 2630 l0 -320 40 0 40 0 0 320 0 320 -40 0 -40 0 0 -320z"/>
<path d="M3726 1758 c-13 -21 -86 -240 -86 -259 0 -4 11 -21 25 -37 13 -16 22
-32 18 -36 -3 -3 -25 -6 -48 -6 l-42 0 -15 -17 -15 -18 -72 -340 c-40 -187
-88 -412 -107 -500 -18 -88 -36 -170 -39 -182 l-5 -23 506 0 506 0 -4 28 c-7
41 -217 984 -226 1011 -9 30 -24 38 -85 46 l-49 6 15 17 c8 9 20 27 26 39 l11
22 -40 122 c-22 67 -45 128 -51 135 l-11 14 -99 0 -99 0 -14 -22z m205 -138
c15 -47 28 -93 28 -102 l1 -18 -40 -20 -39 -20 -41 0 c-45 0 -98 19 -117 41
l-11 14 31 98 32 98 65 -3 64 -3 27 -85z m127 -275 c8 -8 209 -920 205 -927
-2 -5 -191 -8 -419 -8 l-414 0 0 18 c0 9 9 58 20 107 11 50 54 250 96 445 41
195 77 361 79 368 l4 12 213 -5 c116 -3 214 -7 216 -10z"/>
<path d="M6234 1769 c-3 -6 -26 -70 -50 -142 l-44 -130 25 -33 c14 -18 25 -35
25 -38 0 -3 -18 -6 -41 -6 -55 0 -77 -14 -88 -58 -6 -20 -40 -183 -76 -362
-36 -179 -79 -394 -96 -477 -17 -84 -29 -159 -25 -168 l5 -15 489 0 c269 0
491 2 494 5 2 3 -19 119 -47 258 -60 287 -153 731 -160 764 -3 12 -12 29 -21
37 l-15 16 -43 0 c-54 0 -60 6 -36 40 11 16 20 32 20 38 0 23 -83 268 -94 274
-6 4 -57 8 -113 8 l-102 0 -7 -11z m199 -346 c-40 -2 -107 -2 -150 0 -43 1
-10 3 72 3 83 0 118 -2 78 -3z"/>
</g>
</svg>
